<?xml version="1.0" encoding="UTF-8" standalone="no"?>
<svg
   xmlns:dc="http://purl.org/dc/elements/1.1/"
   xmlns:cc="http://creativecommons.org/ns#"
   xmlns:rdf="http://www.w3.org/1999/02/22-rdf-syntax-ns#"
   xmlns:svg="http://www.w3.org/2000/svg"
   xmlns="http://www.w3.org/2000/svg"
   xmlns:sodipodi="http://sodipodi.sourceforge.net/DTD/sodipodi-0.dtd"
   xmlns:inkscape="http://www.inkscape.org/namespaces/inkscape"
   version="1.1"
   x="0px"
   y="0px"
   viewBox="0 0 120.72093 105.60324"
   xml:space="preserve"
   id="svg36"
   sodipodi:docname="logo_small.svg"
   inkscape:version="0.92.4 (5da689c313, 2019-01-14)"
   width="120.72093"
   height="105.60324"><metadata
     id="metadata42"><rdf:RDF><cc:Work
         rdf:about=""><dc:format>image/svg+xml</dc:format><dc:type
           rdf:resource="http://purl.org/dc/dcmitype/StillImage" /><dc:title></dc:title></cc:Work></rdf:RDF></metadata><defs
     id="defs40" /><sodipodi:namedview
     pagecolor="#ffffff"
     bordercolor="#666666"
     borderopacity="1"
     objecttolerance="10"
     gridtolerance="10"
     guidetolerance="10"
     inkscape:pageopacity="0"
     inkscape:pageshadow="2"
     inkscape:window-width="1200"
     inkscape:window-height="1867"
     id="namedview38"
     showgrid="false"
     inkscape:zoom="0.944"
     inkscape:cx="49.729026"
     inkscape:cy="-241.24364"
     inkscape:window-x="-8"
     inkscape:window-y="-8"
     inkscape:window-maximized="1"
     inkscape:current-layer="svg36"
     showborder="false"
     inkscape:measure-start="0,0"
     inkscape:measure-end="0,0" /><g
     id="g4889"
     transform="translate(-291.65571,16.643707)"><path
       inkscape:connector-curvature="0"
       id="path4820"
       d="m 302.54056,23.055512 c 1.82428,0.35501 2.76178,2.532107 2.24218,4.212891 -0.60455,3.575936 -1.20084,7.153745 -1.81054,10.728516 -1.34798,3.704275 -3.60005,6.97087 -5.48633,10.40625 -0.071,0.777923 0.90572,0.846239 1.43957,1.007401 1.82144,0.515697 3.58803,1.854183 3.93348,3.812911 0.36506,1.643715 -0.16494,3.2998 -0.67774,4.849609 -0.071,1.596948 1.17945,2.882106 1.23623,4.468327 0.24642,1.462377 -0.13715,2.924786 -0.36904,4.355892 0.114,0.903767 1.2566,1.011142 1.98551,0.970024 3.58463,0.11218 7.24143,-0.24875 10.75788,0.615373 3.58294,0.961273 6.11857,4.412781 6.46884,8.034125 0.2355,3.097515 0.0146,6.256527 -0.80144,9.257307 -0.73187,1.919868 -3.02905,3.335795 -5.0434,2.522996 -1.8783,-0.607138 -3.04117,-2.685915 -2.74588,-4.609975 -0.0286,-2.224888 0.15079,-4.46667 -0.20745,-6.674616 -0.884,-1.074071 -2.44421,-0.806592 -3.66367,-1.074578 -2.99948,-0.443016 -6.16485,-0.440368 -8.98477,-1.696906 -2.42735,-1.209308 -4.47768,-3.589479 -4.55079,-6.400887 -0.16647,-2.062873 0.73666,-4.135286 -0.005,-6.144752 -0.51056,-1.784433 -1.04362,-3.781856 -0.20309,-5.555788 0.22611,-0.4957 0.50119,-1.342876 -0.19972,-1.588002 -1.54045,-0.727253 -3.04707,-1.769651 -3.74827,-3.383242 -0.64927,-1.305024 -0.58552,-2.884044 0.10984,-4.157756 0.97967,-2.243226 2.38867,-4.264175 3.52913,-6.412934 0.80907,-1.288995 1.45021,-2.718905 1.72364,-4.23838 0.92626,-3.653909 1.41742,-7.399812 2.23647,-11.077243 0.41189,-1.180095 1.48774,-2.3389 2.83399,-2.226563 z" /><path
       d="m 369.13626,15.493012 c 2.41249,0.217771 4.14502,2.662365 4.20703,4.90625 0.84098,5.817112 1.18059,11.89529 -0.5641,17.578606 -1.66978,6.326474 -4.66832,12.459012 -9.46949,16.999325 -2.26625,2.261531 -4.73159,4.298794 -7.02891,6.513866 -1.87959,2.666847 -1.80893,6.11511 -1.98581,9.198546 -0.1851,4.314741 0.16666,8.650279 0.978,12.912782 0.256,1.89826 -0.89153,4.127501 -2.92774,4.390625 -2.15019,0.315419 -4.16439,-1.481192 -4.47605,-3.559112 -2.02612,-7.609925 -2.03237,-15.74029 -0.11764,-23.371171 1.18649,-3.558887 4.22215,-6.003704 7.04577,-8.265507 3.28463,-2.65258 6.61624,-5.588878 8.33255,-9.530278 2.01039,-4.173316 3.0847,-8.838117 2.91069,-13.477057 -0.15545,-3.380523 -0.9378,-6.695046 -1.20394,-10.059541 0.0803,-2.207863 1.97702,-4.406278 4.29964,-4.237334 z"
       id="path4822"
       inkscape:connector-curvature="0" /><path
       sodipodi:nodetypes="cccccccc"
       d="m 346.74576,-9.3810416 c 0.0934,17.1635813 3.1482,6.1343027 -21.03105,8.3133813 -5.0511,0.5773082 -9.87498,2.5354524 -14.09805,5.3324018 -1.26171,0.7532055 -2.42806,1.7004339 -3.77532,2.2907705 -1.50347,0.4344 -3.32914,-0.6391877 -3.39844,-2.2714841 -0.1395,-1.6567094 0.40728,-2.1848571 1.61562,-3.0817496 6.77171,-5.6016726 16.25007,-9.5235286 25.01342,-9.9408398 2.17003,-0.1299967 13.51119,-0.8915721 15.67382,-0.6424801 z"
       id="path4824"
       inkscape:connector-curvature="0" /><path
       d="m 365.30618,45.309419 c 2.08128,0.183639 2.88419,3.085986 1.54492,4.535156 -1.28994,1.679148 -4.41816,1.57539 -5.27148,-0.488282 -0.78662,-1.858786 0.90285,-4.17898 2.9082,-4.029296 0.2726,-0.02311 0.54505,-0.02544 0.81836,-0.01758 z"
       id="path4826"
       inkscape:connector-curvature="0" /><path
       inkscape:connector-curvature="0"
       id="path4828"
       d="m 362.63235,-16.643707 c 7.6099,0.909573 14.66764,5.967912 17.67304,13.0645834 2.81137,6.1402729 2.76643,13.7303966 -0.84882,19.5389326 -2.02452,3.251958 -4.99317,5.910728 -8.41864,7.61256 -2.14091,0.878771 -5.01954,0.01087 -5.8919,-2.247326 -0.79245,-1.91149 0.16086,-4.268244 1.97821,-5.205928 2.34848,-1.648742 5.05353,-3.278356 6.12773,-6.093111 1.89579,-4.4796503 0.78636,-9.8787671 -2.10052,-13.6273363 -2.33128,-3.1516324 -6.16624,-5.1377499 -10.09747,-5.1282406 -3.64659,-0.097819 -7.44369,1.203325 -9.98711,3.9088975 -1.32461,1.5761415 -1.90626,3.8701204 -3.85569,4.8526658 -2.23528,1.1053675 -5.28092,-0.4675429 -5.5925,-2.9667125 -0.36379,-2.2954149 1.0197,-4.3889028 2.3261,-6.1415807 2.90099,-3.7848872 7.36051,-6.1314602 11.99864,-6.9950862 2.20083,-0.4284 4.44982,-0.569877 6.68893,-0.572318 z" /><path
       sodipodi:nodetypes="cccccccccccccccccc"
       inkscape:connector-curvature="0"
       id="path4830"
       d="m 311.48828,-0.30702694 c 6.39852,-3.98138176 0.18116,4.25381624 -3.64694,6.86253894 -1.64166,0.9817867 -4.71849,2.9563658 -7.32448,6.321954 -1.01268,3.335786 -0.65936,6.842993 2.29056,8.693223 3.42459,2.489572 7.61612,3.638919 11.48334,5.288122 6.15633,2.405933 12.38647,5.11958 17.28764,9.675404 3.03404,2.686428 5.76953,5.79787 7.63259,9.416389 2.20369,4.837012 1.10217,11.123077 -2.98684,14.628346 -3.61759,3.084641 -9.52757,3.321404 -13.14031,0.107106 -2.94549,-2.500343 -3.8013,-7.20045 -1.66828,-10.480153 1.2376,-2.041705 3.49116,-3.405048 5.87137,-3.569202 0.57281,-0.04662 1.46652,-0.364148 1.25558,-1.10072 -0.27899,-0.974029 -1.24833,-1.467212 -1.86415,-2.206717 -5.26857,-5.050924 -11.95194,-8.298166 -18.36578,-11.675672 -4.14302,-2.185987 -8.52111,-4.421675 -11.34877,-8.299282 -2.52715,-3.271659 -3.38476,-7.730611 -2.26512,-11.708828 1.00735,-3.891384 5.08624,-8.466026 8.82124,-10.0080269 2.12401,-0.93409711 5.65083,-1.97224055 7.96835,-1.94448204 z" /></g><g
     id="g4903"
     transform="matrix(-1,0,0,1,412.37663,17.072037)"><path
       d="m 302.54056,23.055512 c 1.82428,0.35501 2.76178,2.532107 2.24218,4.212891 -0.60455,3.575936 -1.20084,7.153745 -1.81054,10.728516 -1.34798,3.704275 -3.60005,6.97087 -5.48633,10.40625 -0.071,0.777923 0.90572,0.846239 1.43957,1.007401 1.82144,0.515697 3.58803,1.854183 3.93348,3.812911 0.36506,1.643715 -0.16494,3.2998 -0.67774,4.849609 -0.071,1.596948 1.17945,2.882106 1.23623,4.468327 0.24642,1.462377 -0.13715,2.924786 -0.36904,4.355892 0.114,0.903767 1.2566,1.011142 1.98551,0.970024 3.58463,0.11218 7.24143,-0.24875 10.75788,0.615373 3.58294,0.961273 6.11857,4.412781 6.46884,8.034125 0.2355,3.097515 0.0146,6.256527 -0.80144,9.257307 -0.73187,1.919868 -3.02905,3.335795 -5.0434,2.522996 -1.8783,-0.607138 -3.04117,-2.685915 -2.74588,-4.609975 -0.0286,-2.224888 0.15079,-4.46667 -0.20745,-6.674616 -0.884,-1.074071 -2.44421,-0.806592 -3.66367,-1.074578 -2.99948,-0.443016 -6.16485,-0.440368 -8.98477,-1.696906 -2.42735,-1.209308 -4.47768,-3.589479 -4.55079,-6.400887 -0.16647,-2.062873 0.73666,-4.135286 -0.005,-6.144752 -0.51056,-1.784433 -1.04362,-3.781856 -0.20309,-5.555788 0.22611,-0.4957 0.50119,-1.342876 -0.19972,-1.588002 -1.54045,-0.727253 -3.04707,-1.769651 -3.74827,-3.383242 -0.64927,-1.305024 -0.58552,-2.884044 0.10984,-4.157756 0.97967,-2.243226 2.38867,-4.264175 3.52913,-6.412934 0.80907,-1.288995 1.45021,-2.718905 1.72364,-4.23838 0.92626,-3.653909 1.41742,-7.399812 2.23647,-11.077243 0.41189,-1.180095 1.48774,-2.3389 2.83399,-2.226563 z"
       id="path4891"
       inkscape:connector-curvature="0" /><path
       inkscape:connector-curvature="0"
       id="path4893"
       d="m 369.13626,15.493012 c 2.41249,0.217771 4.14502,2.662365 4.20703,4.90625 0.84098,5.817112 1.18059,11.89529 -0.5641,17.578606 -1.66978,6.326474 -4.66832,12.459012 -9.46949,16.999325 -2.26625,2.261531 -4.73159,4.298794 -7.02891,6.513866 -1.87959,2.666847 -1.80893,6.11511 -1.98581,9.198546 -0.1851,4.314741 0.16666,8.650279 0.978,12.912782 0.256,1.89826 -0.89153,4.127501 -2.92774,4.390625 -2.15019,0.315419 -4.16439,-1.481192 -4.47605,-3.559112 -2.02612,-7.609925 -2.03237,-15.74029 -0.11764,-23.371171 1.18649,-3.558887 4.22215,-6.003704 7.04577,-8.265507 3.28463,-2.65258 6.61624,-5.588878 8.33255,-9.530278 2.01039,-4.173316 3.0847,-8.838117 2.91069,-13.477057 -0.15545,-3.380523 -0.9378,-6.695046 -1.20394,-10.059541 0.0803,-2.207863 1.97702,-4.406278 4.29964,-4.237334 z" /><path
       inkscape:connector-curvature="0"
       id="path4895"
       d="m 346.74576,-9.3810416 c 0.0934,17.1635813 3.1482,6.1343027 -21.03105,8.3133813 -5.0511,0.5773082 -9.87498,2.5354524 -14.09805,5.3324018 -1.26171,0.7532055 -2.42806,1.7004339 -3.77532,2.2907705 -1.50347,0.4344 -3.32914,-0.6391877 -3.39844,-2.2714841 -0.1395,-1.6567094 0.40728,-2.1848571 1.61562,-3.0817496 6.77171,-5.6016726 16.25007,-9.5235286 25.01342,-9.9408398 2.17003,-0.1299967 13.51119,-0.8915721 15.67382,-0.6424801 z"
       sodipodi:nodetypes="cccccccc" /><path
       inkscape:connector-curvature="0"
       id="path4897"
       d="m 365.30618,45.309419 c 2.08128,0.183639 2.88419,3.085986 1.54492,4.535156 -1.28994,1.679148 -4.41816,1.57539 -5.27148,-0.488282 -0.78662,-1.858786 0.90285,-4.17898 2.9082,-4.029296 0.2726,-0.02311 0.54505,-0.02544 0.81836,-0.01758 z" /><path
       d="m 362.63235,-16.643707 c 7.6099,0.909573 14.66764,5.967912 17.67304,13.0645834 2.81137,6.1402729 2.76643,13.7303966 -0.84882,19.5389326 -2.02452,3.251958 -4.99317,5.910728 -8.41864,7.61256 -2.14091,0.878771 -5.01954,0.01087 -5.8919,-2.247326 -0.79245,-1.91149 0.16086,-4.268244 1.97821,-5.205928 2.34848,-1.648742 5.05353,-3.278356 6.12773,-6.093111 1.89579,-4.4796503 0.78636,-9.8787671 -2.10052,-13.6273363 -2.33128,-3.1516324 -6.16624,-5.1377499 -10.09747,-5.1282406 -3.64659,-0.097819 -7.44369,1.203325 -9.98711,3.9088975 -1.32461,1.5761415 -1.90626,3.8701204 -3.85569,4.8526658 -2.23528,1.1053675 -5.28092,-0.4675429 -5.5925,-2.9667125 -0.36379,-2.2954149 1.0197,-4.3889028 2.3261,-6.1415807 2.90099,-3.7848872 7.36051,-6.1314602 11.99864,-6.9950862 2.20083,-0.4284 4.44982,-0.569877 6.68893,-0.572318 z"
       id="path4899"
       inkscape:connector-curvature="0" /><path
       d="m 311.48828,-0.30702694 c 6.39852,-3.98138176 0.18116,4.25381624 -3.64694,6.86253894 -1.64166,0.9817867 -4.71849,2.9563658 -7.32448,6.321954 -1.01268,3.335786 -0.65936,6.842993 2.29056,8.693223 3.42459,2.489572 7.61612,3.638919 11.48334,5.288122 6.15633,2.405933 12.38647,5.11958 17.28764,9.675404 3.03404,2.686428 5.76953,5.79787 7.63259,9.416389 2.20369,4.837012 1.10217,11.123077 -2.98684,14.628346 -3.61759,3.084641 -9.52757,3.321404 -13.14031,0.107106 -2.94549,-2.500343 -3.8013,-7.20045 -1.66828,-10.480153 1.2376,-2.041705 3.49116,-3.405048 5.87137,-3.569202 0.57281,-0.04662 1.46652,-0.364148 1.25558,-1.10072 -0.27899,-0.974029 -1.24833,-1.467212 -1.86415,-2.206717 -5.26857,-5.050924 -11.95194,-8.298166 -18.36578,-11.675672 -4.14302,-2.185987 -8.52111,-4.421675 -11.34877,-8.299282 -2.52715,-3.271659 -3.38476,-7.730611 -2.26512,-11.708828 1.00735,-3.891384 5.08624,-8.466026 8.82124,-10.0080269 2.12401,-0.93409711 5.65083,-1.97224055 7.96835,-1.94448204 z"
       id="path4901"
       inkscape:connector-curvature="0"
       sodipodi:nodetypes="cccccccccccccccccc" /></g></svg>