<?xml version="1.0" encoding="UTF-8" standalone="no"?>
<svg
   xmlns:dc="http://purl.org/dc/elements/1.1/"
   xmlns:cc="http://creativecommons.org/ns#"
   xmlns:rdf="http://www.w3.org/1999/02/22-rdf-syntax-ns#"
   xmlns:svg="http://www.w3.org/2000/svg"
   xmlns="http://www.w3.org/2000/svg"
   xmlns:sodipodi="http://sodipodi.sourceforge.net/DTD/sodipodi-0.dtd"
   xmlns:inkscape="http://www.inkscape.org/namespaces/inkscape"
   version="1.1"
   x="0px"
   y="0px"
   viewBox="0 0 100 125"
   style="enable-background:new 0 0 100 100;"
   xml:space="preserve"
   id="svg36"
   sodipodi:docname="logo.svg"
   inkscape:version="0.92.3 (2405546, 2018-03-11)"><metadata
     id="metadata42"><rdf:RDF><cc:Work
         rdf:about=""><dc:format>image/svg+xml</dc:format><dc:type
           rdf:resource="http://purl.org/dc/dcmitype/StillImage" /><dc:title></dc:title></cc:Work></rdf:RDF></metadata><defs
     id="defs40" /><sodipodi:namedview
     pagecolor="#ffffff"
     bordercolor="#666666"
     borderopacity="1"
     objecttolerance="10"
     gridtolerance="10"
     guidetolerance="10"
     inkscape:pageopacity="0"
     inkscape:pageshadow="2"
     inkscape:window-width="862"
     inkscape:window-height="1031"
     id="namedview38"
     showgrid="false"
     inkscape:zoom="0.944"
     inkscape:cx="-4.5481816"
     inkscape:cy="-66.721126"
     inkscape:window-x="1056"
     inkscape:window-y="24"
     inkscape:window-maximized="0"
     inkscape:current-layer="svg36"
     showborder="false"
     inkscape:measure-start="0,0"
     inkscape:measure-end="0,0" /><g
     id="g994"
     inkscape:export-xdpi="307.20001"
     inkscape:export-ydpi="307.20001"><g
       transform="translate(-9.3631724,5.6179035)"
       id="g30"><g
         id="g20"><g
           id="g6"><g
             id="g4"><path
               inkscape:connector-curvature="0"
               id="path2"
               d="m 31.2,100 c -0.1,0 -0.1,0 -0.2,0 -0.6,-0.1 -1,-0.7 -0.9,-1.3 1,-5.2 0.8,-8.4 -0.6,-10 -1.1,-1.2 -3,-1.8 -6.4,-1.7 -0.6,0 -1.2,0 -1.8,0.1 -1.1,0.1 -2.3,0.1 -3.4,0 -2.5,-0.2 -4.4,-1.3 -5.4,-2.9 -0.7,-1.1 -1.2,-2.9 -0.1,-5.6 0.6,-1.3 0.1,-2.1 -0.4,-3.1 l -0.2,-0.3 c -1.5,-2.6 -0.5,-4.2 0.1,-5.3 0.3,-0.6 0.6,-1 0.6,-1.6 0,-0.5 -0.4,-0.8 -0.9,-0.8 C 10,67.3 8.4,66.6 7.4,65.6 6.4,64.5 6.2,62.9 7,61.7 c 1.1,-1.8 2,-3.2 2.7,-4.3 3.3,-5 3.3,-5 4.5,-13.4 0.2,-1.2 0.4,-2.6 0.6,-4.2 0.1,-0.6 0.6,-1 1.2,-0.9 0.6,0.1 1,0.6 0.9,1.2 -0.2,1.6 -0.4,3 -0.6,4.2 C 15,53 15,53.2 11.6,58.5 10.9,59.6 10,61 8.9,62.8 c -0.3,0.4 -0.2,1 0.1,1.3 0.7,0.7 1.7,1.2 2.9,1.3 1.6,0.2 2.8,1.5 2.8,3 0,1.1 -0.5,2 -0.9,2.7 -0.6,1 -1,1.6 -0.1,3.1 l 0.2,0.3 c 0.6,1.1 1.6,2.7 0.6,5 -0.6,1.4 -0.6,2.7 0,3.6 0.6,1 2,1.7 3.7,1.9 1,0.1 2,0 3.1,0 0.6,0 1.2,-0.1 1.9,-0.1 2.9,0 6.2,0.2 8.1,2.5 1.8,2.2 2.2,5.8 1,11.8 -0.2,0.4 -0.6,0.8 -1.1,0.8 z" /></g></g><g
           id="g10"><path
             inkscape:connector-curvature="0"
             id="path8"
             d="m 65.4,100 c -0.4,0 -0.8,-0.3 -1,-0.7 -2.5,-6.7 -1.9,-15.3 -1,-21.3 0.5,-3 2.2,-5.7 4.7,-7.4 4,-2.6 7.2,-5.6 9,-8.2 v 0 c 0,0 0,0 0,0 l 0.6,0.4 -0.5,-0.5 c 0.1,-0.1 6.3,-8.4 5.7,-19.8 -0.2,-3.5 -1.3,-8.3 -1.3,-8.3 -0.1,-0.6 0.2,-1.2 0.8,-1.3 0.6,-0.1 1.2,0.2 1.3,0.8 0,0.2 1.2,5 1.4,8.7 0.3,6.3 -1.4,11.7 -2.8,15.2 -0.9,2 -2.4,4.9 -3.3,6 v 0 0 0 c -2,2.9 -5.4,6 -9.6,8.8 -2,1.3 -3.4,3.5 -3.8,5.9 -0.8,4.7 -1.6,13.6 0.9,20.2 0.2,0.6 -0.1,1.2 -0.6,1.4 -0.2,0.1 -0.4,0.1 -0.5,0.1 z" /></g><g
           id="g14"><path
             inkscape:connector-curvature="0"
             id="path12"
             d="M 73.8,20.6 C 73.5,20.6 73.3,20.5 73,20.3 66.2,13.5 56.6,10 45.4,9.9 c -0.1,0 -0.1,0 -0.2,0 -15.3,0 -23.7,8.9 -23.8,9 -0.4,0.4 -1.1,0.5 -1.5,0.1 -0.4,-0.4 -0.5,-1.1 -0.1,-1.5 0.4,-0.4 9.2,-9.7 25.4,-9.7 0.1,0 0.1,0 0.2,0 11.8,0.1 21.9,3.9 29.1,11 0.4,0.4 0.4,1.1 0,1.5 -0.2,0.1 -0.4,0.3 -0.7,0.3 z" /></g><g
           id="g18"><path
             inkscape:connector-curvature="0"
             id="path16"
             d="m 78.1,63.1 1,-1.4 c -0.6,0.2 -1.3,0.5 -2,0.7 z" /></g></g><g
         id="g24"><path
           inkscape:connector-curvature="0"
           id="path22"
           d="m 82.7,35.1 c -0.4,0 -0.8,-0.2 -1,-0.6 -0.2,-0.5 0,-1.2 0.5,-1.4 9,-4 10.4,-12.7 7.8,-19.6 C 87.4,6.2 79.5,-0.2 68.7,3.1 c -3.4,1 -7.3,3.5 -8.5,7.6 -0.2,0.6 -0.8,0.9 -1.3,0.8 -0.6,-0.2 -0.9,-0.8 -0.8,-1.3 1.1,-4.1 5,-7.6 9.9,-9.1 12.2,-3.7 21,3.5 24.1,11.7 2.8,7.6 1.2,17.8 -9,22.4 -0.1,-0.1 -0.2,-0.1 -0.4,-0.1 z" /></g><g
         id="g28"><path
           inkscape:connector-curvature="0"
           id="path26"
           d="m 43.2,74.1 c -0.1,0 -0.2,0 -0.3,0 -3.1,-0.1 -6.2,-2.1 -6.1,-5.7 0,-2 1.3,-3.8 3.1,-4.4 0.9,-0.3 2,-0.2 2.9,0.2 1,0.5 1.7,1.3 2,2.2 C 45,67 44.7,67.6 44.1,67.8 43.5,68 42.9,67.7 42.7,67.1 42.6,66.7 42.3,66.4 41.9,66.2 41.5,66 41,66 40.6,66.1 39.7,66.4 39,67.4 39,68.4 c 0,2.4 2,3.5 4,3.6 0.1,0 0.1,0 0.2,0 2.7,0 5.4,-1.8 5.7,-5.9 C 49,64.2 48.4,62.3 47.3,60.6 40.8,51.4 31.5,47.8 31.4,47.7 l -0.2,-0.1 c -1.9,-1.2 -4.5,-2.1 -7,-3 -1.8,-0.6 -3.5,-1.2 -5,-2 -4.6,-2.2 -7.7,-4.9 -9.2,-8.1 -2,-4.2 -1.3,-9.6 1.8,-13.1 3,-3.5 8.3,-5 12.7,-3.6 0.3,0.1 7.9,2.5 10.2,7.8 0.2,0.5 0,1.2 -0.6,1.4 -0.6,0.2 -1.2,0 -1.4,-0.6 -1.9,-4.4 -8.8,-6.5 -8.9,-6.6 -3.6,-1.2 -7.9,0 -10.4,2.9 -2.5,2.9 -3.1,7.3 -1.4,10.7 1.3,2.8 4,5.1 8.2,7.1 1.4,0.7 3,1.2 4.8,1.9 2.6,0.9 5.3,1.9 7.3,3.2 1.2,0.5 10.2,4.3 16.8,13.6 1.5,2.1 2.2,4.5 2,6.8 -0.4,5.7 -4.3,8.1 -7.9,8.1 z" /></g></g><g
       id="g896"
       transform="matrix(-1,0,0,1,122.43683,5.6179035)"><g
         id="g886"><g
           id="g872"><g
             id="g870"><path
               d="m 31.2,100 c -0.1,0 -0.1,0 -0.2,0 -0.6,-0.1 -1,-0.7 -0.9,-1.3 1,-5.2 0.8,-8.4 -0.6,-10 -1.1,-1.2 -3,-1.8 -6.4,-1.7 -0.6,0 -1.2,0 -1.8,0.1 -1.1,0.1 -2.3,0.1 -3.4,0 -2.5,-0.2 -4.4,-1.3 -5.4,-2.9 -0.7,-1.1 -1.2,-2.9 -0.1,-5.6 0.6,-1.3 0.1,-2.1 -0.4,-3.1 l -0.2,-0.3 c -1.5,-2.6 -0.5,-4.2 0.1,-5.3 0.3,-0.6 0.6,-1 0.6,-1.6 0,-0.5 -0.4,-0.8 -0.9,-0.8 C 10,67.3 8.4,66.6 7.4,65.6 6.4,64.5 6.2,62.9 7,61.7 c 1.1,-1.8 2,-3.2 2.7,-4.3 3.3,-5 3.3,-5 4.5,-13.4 0.2,-1.2 0.4,-2.6 0.6,-4.2 0.1,-0.6 0.6,-1 1.2,-0.9 0.6,0.1 1,0.6 0.9,1.2 -0.2,1.6 -0.4,3 -0.6,4.2 C 15,53 15,53.2 11.6,58.5 10.9,59.6 10,61 8.9,62.8 c -0.3,0.4 -0.2,1 0.1,1.3 0.7,0.7 1.7,1.2 2.9,1.3 1.6,0.2 2.8,1.5 2.8,3 0,1.1 -0.5,2 -0.9,2.7 -0.6,1 -1,1.6 -0.1,3.1 l 0.2,0.3 c 0.6,1.1 1.6,2.7 0.6,5 -0.6,1.4 -0.6,2.7 0,3.6 0.6,1 2,1.7 3.7,1.9 1,0.1 2,0 3.1,0 0.6,0 1.2,-0.1 1.9,-0.1 2.9,0 6.2,0.2 8.1,2.5 1.8,2.2 2.2,5.8 1,11.8 -0.2,0.4 -0.6,0.8 -1.1,0.8 z"
               id="path868"
               inkscape:connector-curvature="0" /></g></g><g
           id="g876"><path
             d="m 65.4,100 c -0.4,0 -0.8,-0.3 -1,-0.7 -2.5,-6.7 -1.9,-15.3 -1,-21.3 0.5,-3 2.2,-5.7 4.7,-7.4 4,-2.6 7.2,-5.6 9,-8.2 v 0 c 0,0 0,0 0,0 l 0.6,0.4 -0.5,-0.5 c 0.1,-0.1 6.3,-8.4 5.7,-19.8 -0.2,-3.5 -1.3,-8.3 -1.3,-8.3 -0.1,-0.6 0.2,-1.2 0.8,-1.3 0.6,-0.1 1.2,0.2 1.3,0.8 0,0.2 1.2,5 1.4,8.7 0.3,6.3 -1.4,11.7 -2.8,15.2 -0.9,2 -2.4,4.9 -3.3,6 v 0 0 0 c -2,2.9 -5.4,6 -9.6,8.8 -2,1.3 -3.4,3.5 -3.8,5.9 -0.8,4.7 -1.6,13.6 0.9,20.2 0.2,0.6 -0.1,1.2 -0.6,1.4 -0.2,0.1 -0.4,0.1 -0.5,0.1 z"
             id="path874"
             inkscape:connector-curvature="0" /></g><g
           id="g880"><path
             d="M 73.8,20.6 C 73.5,20.6 73.3,20.5 73,20.3 66.2,13.5 56.6,10 45.4,9.9 c -0.1,0 -0.1,0 -0.2,0 -15.3,0 -23.7,8.9 -23.8,9 -0.4,0.4 -1.1,0.5 -1.5,0.1 -0.4,-0.4 -0.5,-1.1 -0.1,-1.5 0.4,-0.4 9.2,-9.7 25.4,-9.7 0.1,0 0.1,0 0.2,0 11.8,0.1 21.9,3.9 29.1,11 0.4,0.4 0.4,1.1 0,1.5 -0.2,0.1 -0.4,0.3 -0.7,0.3 z"
             id="path878"
             inkscape:connector-curvature="0" /></g><g
           id="g884"><path
             d="m 78.1,63.1 1,-1.4 c -0.6,0.2 -1.3,0.5 -2,0.7 z"
             id="path882"
             inkscape:connector-curvature="0" /></g></g><g
         id="g890"><path
           d="m 82.7,35.1 c -0.4,0 -0.8,-0.2 -1,-0.6 -0.2,-0.5 0,-1.2 0.5,-1.4 9,-4 10.4,-12.7 7.8,-19.6 C 87.4,6.2 79.5,-0.2 68.7,3.1 c -3.4,1 -7.3,3.5 -8.5,7.6 -0.2,0.6 -0.8,0.9 -1.3,0.8 -0.6,-0.2 -0.9,-0.8 -0.8,-1.3 1.1,-4.1 5,-7.6 9.9,-9.1 12.2,-3.7 21,3.5 24.1,11.7 2.8,7.6 1.2,17.8 -9,22.4 -0.1,-0.1 -0.2,-0.1 -0.4,-0.1 z"
           id="path888"
           inkscape:connector-curvature="0" /></g><g
         id="g894"><path
           d="m 43.2,74.1 c -0.1,0 -0.2,0 -0.3,0 -3.1,-0.1 -6.2,-2.1 -6.1,-5.7 0,-2 1.3,-3.8 3.1,-4.4 0.9,-0.3 2,-0.2 2.9,0.2 1,0.5 1.7,1.3 2,2.2 C 45,67 44.7,67.6 44.1,67.8 43.5,68 42.9,67.7 42.7,67.1 42.6,66.7 42.3,66.4 41.9,66.2 41.5,66 41,66 40.6,66.1 39.7,66.4 39,67.4 39,68.4 c 0,2.4 2,3.5 4,3.6 0.1,0 0.1,0 0.2,0 2.7,0 5.4,-1.8 5.7,-5.9 C 49,64.2 48.4,62.3 47.3,60.6 40.8,51.4 31.5,47.8 31.4,47.7 l -0.2,-0.1 c -1.9,-1.2 -4.5,-2.1 -7,-3 -1.8,-0.6 -3.5,-1.2 -5,-2 -4.6,-2.2 -7.7,-4.9 -9.2,-8.1 -2,-4.2 -1.3,-9.6 1.8,-13.1 3,-3.5 8.3,-5 12.7,-3.6 0.3,0.1 7.9,2.5 10.2,7.8 0.2,0.5 0,1.2 -0.6,1.4 -0.6,0.2 -1.2,0 -1.4,-0.6 -1.9,-4.4 -8.8,-6.5 -8.9,-6.6 -3.6,-1.2 -7.9,0 -10.4,2.9 -2.5,2.9 -3.1,7.3 -1.4,10.7 1.3,2.8 4,5.1 8.2,7.1 1.4,0.7 3,1.2 4.8,1.9 2.6,0.9 5.3,1.9 7.3,3.2 1.2,0.5 10.2,4.3 16.8,13.6 1.5,2.1 2.2,4.5 2,6.8 -0.4,5.7 -4.3,8.1 -7.9,8.1 z"
           id="path892"
           inkscape:connector-curvature="0" /></g></g></g></svg>